{
  "accessors": [
    {
      "bufferView": 2,
      "componentType": 5126,
      "count": 4144,
      "max": [
        0.7942832708358765,
        2.925095319747925,
        2.9353578090667725
      ],
      "min": [
        -0.7942832708358765,
        0.14054861664772034,
        -1.9891197681427002
      ],
      "type": "VEC3"
    },
    {
      "bufferView": 2,
      "byteOffset": 49728,
      "componentType": 5126,
      "count": 4144,
      "max": [
        0.9997766613960266,
        0.9996774792671204,
        0.9999997019767761
      ],
      "min": [
        -0.9997766613960266,
        -0.9999594688415527,
        -0.9996135234832764
      ],
      "type": "VEC3"
    },
    {
      "bufferView": 1,
      "componentType": 5126,
      "count": 4144,
      "max": [
        0.9980413913726807,
        0.9949209094047546
      ],
      "min": [
        0.002041637897491455,
        0.0017013251781463623
      ],
      "type": "VEC2"
    },
    {
      "bufferView": 0,
      "componentType": 5125,
      "count": 21744,
      "type": "SCALAR"
    },
    {
      "bufferView": 2,
      "byteOffset": 99456,
      "componentType": 5126,
      "count": 301,
      "max": [
        0.18458563089370728,
        2.1315510272979736,
        2.689779758453369
      ],
      "min": [
        -0.18458563089370728,
        1.9387123584747314,
        2.119075059890747
      ],
      "type": "VEC3"
    },
    {
      "bufferView": 2,
      "byteOffset": 103068,
      "componentType": 5126,
      "count": 301,
      "max": [
        0.9993844032287598,
        0.9999210834503174,
        1.0
      ],
      "min": [
        -0.9993845820426941,
        -0.9998790621757507,
        -0.6198487281799316
      ],
      "type": "VEC3"
    },
    {
      "bufferView": 1,
      "byteOffset": 33152,
      "componentType": 5126,
      "count": 301,
      "max": [
        0.5587784647941589,
        0.7309865355491638
      ],
      "min": [
        0.3977169692516327,
        0.6537966132164001
      ],
      "type": "VEC2"
    },
    {
      "bufferView": 0,
      "byteOffset": 86976,
      "componentType": 5125,
      "count": 1536,
      "type": "SCALAR"
    },
    {
      "bufferView": 2,
      "byteOffset": 106680,
      "componentType": 5126,
      "count": 1402,
      "max": [
        0.259146511554718,
        2.171165704727173,
        2.7562801837921143
      ],
      "min": [
        -0.2591465711593628,
        2.040086507797241,
        2.1519951820373535
      ],
      "type": "VEC3"
    },
    {
      "bufferView": 2,
      "byteOffset": 123504,
      "componentType": 5126,
      "count": 1402,
      "max": [
        1.0,
        1.0,
        1.0
      ],
      "min": [
        -1.0,
        -0.9999987483024597,
        -1.0
      ],
      "type": "VEC3"
    },
    {
      "bufferView": 1,
      "byteOffset": 35560,
      "componentType": 5126,
      "count": 1402,
      "max": [
        0.8409665822982788,
        0.10223323106765747
      ],
      "min": [
        0.6583721041679382,
        0.0017546623712405562
      ],
      "type": "VEC2"
    },
    {
      "bufferView": 0,
      "byteOffset": 93120,
      "componentType": 5125,
      "count": 7680,
      "type": "SCALAR"
    },
    {
      "bufferView": 2,
      "byteOffset": 140328,
      "componentType": 5126,
      "count": 804,
      "max": [
        0.3301309645175934,
        2.677741527557373,
        2.4652252197265625
      ],
      "min": [
        -0.32907021045684814,
        2.461045026779175,
        2.2485289573669434
      ],
      "type": "VEC3"
    },
    {
      "bufferView": 2,
      "byteOffset": 149976,
      "componentType": 5126,
      "count": 804,
      "max": [
        1.0,
        1.0,
        1.0
      ],
      "min": [
        -1.0,
        -1.0,
        -1.0
      ],
      "type": "VEC3"
    },
    {
      "bufferView": 1,
      "byteOffset": 46776,
      "componentType": 5126,
      "count": 804,
      "max": [
        0.8197191953659058,
        0.9943094253540039
      ],
      "min": [
        0.08017343282699585,
        0.00513344444334507
      ],
      "type": "VEC2"
    },
    {
      "bufferView": 0,
      "byteOffset": 123840,
      "componentType": 5125,
      "count": 4560,
      "type": "SCALAR"
    }
  ],
  "asset": {
    "extras": {
      "author": "yashanimation (https://sketchfab.com/yashanimation)",
      "license": "CC-BY-4.0 (http://creativecommons.org/licenses/by/4.0/)",
      "source": "https://sketchfab.com/3d-models/dog-eb3fbf324cce4ecc9f64d99a9c0c23ba",
      "title": "Dog"
    },
    "generator": "Sketchfab-12.67.0",
    "version": "2.0"
  },
  "bufferViews": [
    {
      "buffer": 0,
      "byteLength": 142080,
      "name": "floatBufferViews",
      "target": 34963
    },
    {
      "buffer": 0,
      "byteLength": 53208,
      "byteOffset": 142080,
      "byteStride": 8,
      "name": "floatBufferViews",
      "target": 34962
    },
    {
      "buffer": 0,
      "byteLength": 159624,
      "byteOffset": 195288,
      "byteStride": 12,
      "name": "floatBufferViews",
      "target": 34962
    }
  ],
  "buffers": [
    {
      "byteLength": 354912,
      "uri": "scene.bin"
    }
  ],
  "images": [
    {
      "uri": "textures/Dog_mat_baseColor.png"
    },
    {
      "uri": "textures/Dog_Tongue_mat_baseColor.png"
    },
    {
      "uri": "textures/Dog_Teeth_mat_baseColor.png"
    },
    {
      "uri": "textures/Dog_eyes_mat_baseColor.png"
    }
  ],
  "materials": [
    {
      "doubleSided": true,
      "name": "Dog_mat",
      "pbrMetallicRoughness": {
        "baseColorTexture": {
          "index": 0
        },
        "metallicFactor": 0.0,
        "roughnessFactor": 0.6
      }
    },
    {
      "doubleSided": true,
      "name": "Dog_Tongue_mat",
      "pbrMetallicRoughness": {
        "baseColorTexture": {
          "index": 1
        },
        "metallicFactor": 0.0,
        "roughnessFactor": 0.6
      }
    },
    {
      "doubleSided": true,
      "name": "Dog_Teeth_mat",
      "pbrMetallicRoughness": {
        "baseColorTexture": {
          "index": 2
        },
        "metallicFactor": 0.0,
        "roughnessFactor": 0.7885257473
      }
    },
    {
      "doubleSided": true,
      "name": "Dog_eyes_mat",
      "pbrMetallicRoughness": {
        "baseColorTexture": {
          "index": 3
        },
        "metallicFactor": 0.0,
        "roughnessFactor": 0.7885257473
      }
    }
  ],
  "meshes": [
    {
      "name": "Dog_geo_Dog_mat_0",
      "primitives": [
        {
          "attributes": {
            "NORMAL": 1,
            "POSITION": 0,
            "TEXCOORD_0": 2
          },
          "indices": 3,
          "material": 0,
          "mode": 4
        }
      ]
    },
    {
      "name": "Dog_geo_Dog_Tongue_mat_0",
      "primitives": [
        {
          "attributes": {
            "NORMAL": 5,
            "POSITION": 4,
            "TEXCOORD_0": 6
          },
          "indices": 7,
          "material": 1,
          "mode": 4
        }
      ]
    },
    {
      "name": "Dog_geo_Dog_Teeth_mat_0",
      "primitives": [
        {
          "attributes": {
            "NORMAL": 9,
            "POSITION": 8,
            "TEXCOORD_0": 10
          },
          "indices": 11,
          "material": 2,
          "mode": 4
        }
      ]
    },
    {
      "name": "Dog_geo_Dog_eyes_mat_0",
      "primitives": [
        {
          "attributes": {
            "NORMAL": 13,
            "POSITION": 12,
            "TEXCOORD_0": 14
          },
          "indices": 15,
          "material": 3,
          "mode": 4
        }
      ]
    }
  ],
  "nodes": [
    {
      "children": [
        1
      ],
      "matrix": [
        1.0,
        0.0,
        0.0,
        0.0,
        0.0,
        2.220446049250313e-16,
        -1.0,
        0.0,
        0.0,
        1.0,
        2.220446049250313e-16,
        0.0,
        0.0,
        0.0,
        0.0,
        1.0
      ],
      "name": "Sketchfab_model"
    },
    {
      "children": [
        2
      ],
      "matrix": [
        1.0,
        0.0,
        0.0,
        0.0,
        0.0,
        0.0,
        1.0,
        0.0,
        0.0,
        -1.0,
        0.0,
        0.0,
        0.0,
        0.0,
        0.0,
        1.0
      ],
      "name": "31d7890d2fa2454fa6db78270ca2df07.fbx"
    },
    {
      "children": [
        3
      ],
      "name": "RootNode"
    },
    {
      "children": [
        4,
        5,
        6,
        7
      ],
      "name": "Dog_geo"
    },
    {
      "mesh": 0,
      "name": "Dog_geo_Dog_mat_0"
    },
    {
      "mesh": 1,
      "name": "Dog_geo_Dog_Tongue_mat_0"
    },
    {
      "mesh": 2,
      "name": "Dog_geo_Dog_Teeth_mat_0"
    },
    {
      "mesh": 3,
      "name": "Dog_geo_Dog_eyes_mat_0"
    }
  ],
  "samplers": [
    {
      "magFilter": 9729,
      "minFilter": 9987,
      "wrapS": 10497,
      "wrapT": 10497
    }
  ],
  "scene": 0,
  "scenes": [
    {
      "name": "Sketchfab_Scene",
      "nodes": [
        0
      ]
    }
  ],
  "textures": [
    {
      "sampler": 0,
      "source": 0
    },
    {
      "sampler": 0,
      "source": 1
    },
    {
      "sampler": 0,
      "source": 2
    },
    {
      "sampler": 0,
      "source": 3
    }
  ]
}
