{
  "accessors": [
    {
      "bufferView": 2,
      "componentType": 5126,
      "count": 6567,
      "max": [
        3.1650655269622803,
        4.694265365600586,
        1.8076496124267578
      ],
      "min": [
        -3.184054136276245,
        -3.0824954509735107,
        -2.52687406539917
      ],
      "type": "VEC3"
    },
    {
      "bufferView": 2,
      "byteOffset": 78804,
      "componentType": 5126,
      "count": 6567,
      "max": [
        0.9994904398918152,
        0.9995499849319458,
        0.9999900460243225
      ],
      "min": [
        -0.9999221563339233,
        -0.9997650384902954,
        -0.9999995231628418
      ],
      "type": "VEC3"
    },
    {
      "bufferView": 3,
      "componentType": 5126,
      "count": 6567,
      "max": [
        0.9999382495880127,
        0.9993759393692017,
        0.9998641014099121,
        1.0
      ],
      "min": [
        -0.9996426105499268,
        -0.999206006526947,
        -0.9998650550842285,
        -1.0
      ],
      "type": "VEC4"
    },
    {
      "bufferView": 3,
      "byteOffset": 105072,
      "componentType": 5126,
      "count": 6567,
      "max": [
        0.9960784316062927,
        0.9019607901573181,
        0.8901960849761963,
        1.0
      ],
      "min": [
        0.0,
        0.0,
        0.0,
        1.0
      ],
      "type": "VEC4"
    },
    {
      "bufferView": 1,
      "componentType": 5126,
      "count": 6567,
      "max": [
        0.9380300045013428,
        0.9980400204658508
      ],
      "min": [
        0.0019499999471008778,
        0.0019499999471008778
      ],
      "type": "VEC2"
    },
    {
      "bufferView": 0,
      "componentType": 5125,
      "count": 34986,
      "type": "SCALAR"
    }
  ],
  "asset": {
    "extras": {
      "author": "Micow.Chiang (https://sketchfab.com/Micow.Chiang)",
      "license": "CC-BY-4.0 (http://creativecommons.org/licenses/by/4.0/)",
      "source": "https://sketchfab.com/3d-models/frog-ebc42901b4d44ef284da6df23c401312",
      "title": "Frog"
    },
    "generator": "Sketchfab-12.66.0",
    "version": "2.0"
  },
  "bufferViews": [
    {
      "buffer": 0,
      "byteLength": 139944,
      "name": "floatBufferViews",
      "target": 34963
    },
    {
      "buffer": 0,
      "byteLength": 52536,
      "byteOffset": 139944,
      "byteStride": 8,
      "name": "floatBufferViews",
      "target": 34962
    },
    {
      "buffer": 0,
      "byteLength": 157608,
      "byteOffset": 192480,
      "byteStride": 12,
      "name": "floatBufferViews",
      "target": 34962
    },
    {
      "buffer": 0,
      "byteLength": 210144,
      "byteOffset": 350088,
      "byteStride": 16,
      "name": "floatBufferViews",
      "target": 34962
    }
  ],
  "buffers": [
    {
      "byteLength": 560232,
      "uri": "scene.bin"
    }
  ],
  "images": [
    {
      "uri": "textures/defaultMat_baseColor.png"
    },
    {
      "uri": "textures/defaultMat_metallicRoughness.png"
    },
    {
      "uri": "textures/defaultMat_normal.png"
    }
  ],
  "materials": [
    {
      "doubleSided": true,
      "name": "defaultMat",
      "normalTexture": {
        "index": 2
      },
      "occlusionTexture": {
        "index": 1
      },
      "pbrMetallicRoughness": {
        "baseColorTexture": {
          "index": 0
        },
        "metallicFactor": 0.0,
        "metallicRoughnessTexture": {
          "index": 1
        },
        "roughnessFactor": 0.5
      }
    }
  ],
  "meshes": [
    {
      "name": "Object_0",
      "primitives": [
        {
          "attributes": {
            "COLOR_0": 3,
            "NORMAL": 1,
            "POSITION": 0,
            "TANGENT": 2,
            "TEXCOORD_0": 4
          },
          "indices": 5,
          "material": 0,
          "mode": 4
        }
      ]
    }
  ],
  "nodes": [
    {
      "children": [
        1
      ],
      "matrix": [
        0.1605188250541687,
        0.0,
        0.0,
        0.0,
        0.0,
        3.5642339092183107e-17,
        -0.1605188250541687,
        0.0,
        0.0,
        0.1605188250541687,
        3.5642339092183107e-17,
        0.0,
        0.0,
        0.0,
        0.0,
        1.0
      ],
      "name": "Sketchfab_model"
    },
    {
      "children": [
        2
      ],
      "name": "20190909_frog.OBJ.cleaner.materialmerger.gles"
    },
    {
      "mesh": 0,
      "name": "Object_2"
    }
  ],
  "samplers": [
    {
      "magFilter": 9729,
      "minFilter": 9987,
      "wrapS": 10497,
      "wrapT": 10497
    }
  ],
  "scene": 0,
  "scenes": [
    {
      "name": "Sketchfab_Scene",
      "nodes": [
        0
      ]
    }
  ],
  "textures": [
    {
      "sampler": 0,
      "source": 0
    },
    {
      "sampler": 0,
      "source": 1
    },
    {
      "sampler": 0,
      "source": 2
    }
  ]
}
